<?xml version="1.0" encoding="UTF-8"?>
<svg version="1.1" xmlns="http://www.w3.org/2000/svg" width="512" height="512">
<path d="M0 0 C168.96 0 337.92 0 512 0 C512 168.96 512 337.92 512 512 C343.04 512 174.08 512 0 512 C0 343.04 0 174.08 0 0 Z " fill="#0081FB" transform="translate(0,0)"/>
<path d="M0 0 C4.25052624 2.40142726 8.00122533 5.22321701 11.8125 8.25 C12.42689941 8.73509033 13.04129883 9.22018066 13.67431641 9.7199707 C18.23827603 13.34407935 22.68867156 17.0769589 27 21 C25.125 24.875 25.125 24.875 24 26 C20.8949275 26.09533653 17.81213542 26.12551126 14.70678711 26.11352539 C13.73128403 26.11367142 12.75578094 26.11381744 11.75071716 26.1139679 C8.50957047 26.11326833 5.26848046 26.10547391 2.02734375 26.09765625 C-0.21325143 26.09579222 -2.45384702 26.09436825 -4.69444275 26.09336853 C-10.6045951 26.08954213 -16.51472305 26.0797108 -22.42486572 26.06866455 C-28.45055817 26.05845306 -34.47625453 26.05387147 -40.50195312 26.04882812 C-52.33464789 26.03808864 -64.1673181 26.02049086 -76 26 C-76 33.59 -76 41.18 -76 49 C-62.51643486 49.14075866 -49.03516041 49.2301372 -35.5508461 49.23059464 C-29.28855052 49.23282913 -23.02798836 49.2570407 -16.76611328 49.33251953 C-10.71592718 49.40462088 -4.66816475 49.41763081 1.38236237 49.39070892 C3.68356063 49.39065338 5.98486217 49.41142851 8.28566742 49.4539566 C22.68960469 50.09148928 22.68960469 50.09148928 34.92541885 43.6099205 C37.17927056 41.19455771 39.12406754 38.72059517 41 36 C43.90471407 37.4011809 46.09832291 38.80592078 48.4609375 41.01171875 C49.09773438 41.60533203 49.73453125 42.19894531 50.390625 42.81054688 C51.04546875 43.42994141 51.7003125 44.04933594 52.375 44.6875 C53.02210938 45.28755859 53.66921875 45.88761719 54.3359375 46.50585938 C58.53599589 50.44764804 62.3231392 54.56613844 66 59 C63.02501163 60.66915863 61.62377201 61.02493301 58.05078125 61.26171875 C54.56921334 61.63782151 54.10199659 61.90047231 51.41796875 64.51953125 C50.68191406 65.60621094 49.94585937 66.69289063 49.1875 67.8125 C48.34614936 69.00225207 47.49963527 70.18836672 46.6484375 71.37109375 C46.21756836 71.97550293 45.78669922 72.57991211 45.34277344 73.20263672 C41.6486839 78.14734348 37.23891464 82.52667534 33 87 C32.31550781 87.77214844 31.63101562 88.54429687 30.92578125 89.33984375 C29.34718018 91.0691139 27.90700135 92.64280943 26 94 C23.0625 93.9375 23.0625 93.9375 21 93 C21.40120612 88.58673268 22.35515848 84.75164248 23.8125 80.5625 C26.27860706 73.16417882 28.10858223 65.56567109 30 58 C-4.98 58 -39.96 58 -76 58 C-75.84164368 80.90216542 -75.84164368 80.90216542 -75.63964844 103.80395508 C-75.62158203 108.23376465 -75.62158203 108.23376465 -75.6182251 110.30766296 C-75.61208328 111.75591444 -75.59801568 113.20414548 -75.57769775 114.65226746 C-75.54845199 116.84642046 -75.54437446 119.03932413 -75.54589844 121.23364258 C-75.53701599 122.47052322 -75.52813354 123.70740387 -75.51898193 124.98176575 C-76 128 -76 128 -77.8291626 129.84867859 C-84.05227222 133.14915579 -88.79454895 133 -96 133 C-96 108.25 -96 83.5 -96 58 C-129.33 58 -162.66 58 -197 58 C-197 62.29 -197 66.58 -197 71 C-198.78782181 80.03843247 -201.89096457 87.89096457 -208.5 94.5 C-213.97760401 97.7865624 -219.6684647 99.10569091 -226 98 C-229.0625 96 -229.0625 96 -231 93 C-231.84962304 88.68108286 -231.99575367 86.56760077 -229.6328125 82.84765625 C-226.96944735 79.66937384 -224.48560655 77.29731013 -220.9375 75.125 C-213.58564325 69.80663554 -209.7416759 59.66834099 -208 51 C-207.58473825 45.66624882 -207.75612154 40.33822859 -208 35 C-206.02 35 -204.04 35 -202 35 C-200.68 39.29 -199.36 43.58 -198 48 C-164.34 48.33 -130.68 48.66 -96 49 C-96 41.41 -96 33.82 -96 26 C-126.36 26 -156.72 26 -188 26 C-190 21 -190 21 -190 17 C-131.59 17 -73.18 17 -13 17 C-12.34 15.68 -11.68 14.36 -11 13 C-10.16931132 11.89350825 -9.30060344 10.81465517 -8.3984375 9.765625 C-7.66367187 8.90517578 -7.66367187 8.90517578 -6.9140625 8.02734375 C-6.40617188 7.44082031 -5.89828125 6.85429688 -5.375 6.25 C-4.859375 5.64800781 -4.34375 5.04601562 -3.8125 4.42578125 C-2.54530865 2.94739134 -1.27314225 1.47326829 0 0 Z " fill="#FDFEFE" transform="translate(339,110)"/>
<path d="M0 0 C18 1.125 18 1.125 24.5 2.0625 C25.7478125 2.23910156 26.995625 2.41570312 28.28125 2.59765625 C29.1784375 2.73042969 30.075625 2.86320313 31 3 C30.26051296 6.26046559 29.82113986 8.0252021 27 10 C24.69 10.33 22.38 10.66 20 11 C20 20.24 20 29.48 20 39 C28.91 39 37.82 39 47 39 C47.66 37.68 48.32 36.36 49 35 C49.76425107 33.90039099 50.55921633 32.82151752 51.3828125 31.765625 C51.82753906 31.19199219 52.27226562 30.61835938 52.73046875 30.02734375 C53.19066406 29.44082031 53.65085937 28.85429687 54.125 28.25 C54.59292969 27.64800781 55.06085938 27.04601562 55.54296875 26.42578125 C56.69225007 24.94813384 57.84571235 23.47373995 59 22 C68.49949016 26.21954098 76.42608697 35.05040084 84 42 C83.6875 43.875 83.6875 43.875 83 46 C79.68054858 48.21296761 78.57627026 48.26466755 74.70239258 48.31884766 C73.08105156 48.34865219 73.08105156 48.34865219 71.42695618 48.37905884 C70.26125595 48.39061005 69.09555573 48.40216125 67.89453125 48.4140625 C66.10301888 48.44311172 66.10301888 48.44311172 64.27531433 48.4727478 C60.45444924 48.53260616 56.63355413 48.57895454 52.8125 48.625 C50.22459612 48.66317397 47.63670501 48.70222535 45.04882812 48.7421875 C38.69933209 48.83831291 32.34975928 48.92334218 26 49 C27.41667432 51.22825166 28.83636358 53.45448444 30.2578125 55.6796875 C30.65460205 56.30447998 31.0513916 56.92927246 31.46020508 57.57299805 C34.95217811 63.03076962 38.76785859 68.08948255 43 73 C43.82113281 73.95519531 44.64226562 74.91039062 45.48828125 75.89453125 C60.47973966 92.96851976 79.17787499 105.16475482 99 116 C99 117.32 99 118.64 99 120 C97.783125 120.4125 96.56625 120.825 95.3125 121.25 C87.57378676 124.22013994 84.61370157 128.80335177 81 136 C52.97710503 123.13494367 31.71179054 85.14657482 21 58 C20.99857498 59.20634094 20.99714996 60.41268188 20.99568176 61.65557861 C20.97902381 73.01538198 20.93628691 84.37482657 20.86790943 95.73443985 C20.83359532 101.57480267 20.80852254 107.41490268 20.80444336 113.25537109 C20.80016996 118.89011895 20.77178639 124.52427349 20.72656822 130.15883636 C20.7135626 132.3102142 20.70929632 134.46166292 20.71384621 136.61307526 C20.71873031 139.62323852 20.69275652 142.63165303 20.65942383 145.64160156 C20.66804947 146.5342421 20.67667511 147.42688263 20.68556213 148.34657288 C20.572885 154.40274628 20.572885 154.40274628 17.59550476 157.5067749 C10.89293676 161.36284287 8.85284356 161 0 161 C-0.33 132.95 -0.66 104.9 -1 76 C-3.97 79.96 -6.94 83.92 -10 88 C-13.52809211 92.13622378 -17.24844199 96.06771 -21 100 C-21.72832031 100.78117187 -22.45664062 101.56234375 -23.20703125 102.3671875 C-35.67264324 115.36472727 -53.33115537 129.85252328 -70 137 C-72.2109375 136.92578125 -72.2109375 136.92578125 -74 136 C-75.25 133.9375 -75.25 133.9375 -76 132 C-75.35675781 131.56171875 -74.71351563 131.1234375 -74.05078125 130.671875 C-66.60397013 125.44529715 -59.99002059 119.65102393 -53.42919922 113.36621094 C-52.22488217 112.21497106 -51.00656602 111.07840163 -49.78515625 109.9453125 C-32.04836598 93.04276799 -18.84981733 70.16208898 -9 48 C-22.2 48 -35.4 48 -49 48 C-49.66 45.03 -50.32 42.06 -51 39 C-34.17 39 -17.34 39 0 39 C0 26.13 0 13.26 0 0 Z " fill="#FCFDFE" transform="translate(303,241)"/>
<path d="M0 0 C7.86183233 0 15.11546998 0.02049833 22.8125 1 C24.01229492 1.14308594 24.01229492 1.14308594 25.23632812 1.2890625 C27.15837787 1.5192481 29.0793304 1.75856903 31 2 C30.2109375 6.78125 30.2109375 6.78125 28.3125 8.75 C26 10 26 10 20 11 C20 20.57 20 30.14 20 40 C29.36769069 40.94251451 29.36769069 40.94251451 37.77294922 37.57861328 C40.46440417 34.61085865 42.61041627 31.39391203 44.765625 28.02734375 C45.50296875 27.02832031 46.2403125 26.02929688 47 25 C52.1709894 25 54.16161736 27.2834036 57.8125 30.5625 C58.43398926 31.1080957 59.05547852 31.65369141 59.69580078 32.21582031 C63.96221059 35.9890488 68.06628092 39.87896096 72 44 C70.25 47.875 70.25 47.875 68 49 C66.45772144 49.08991092 64.91159105 49.11756961 63.36669922 49.11352539 C62.40585419 49.11344986 61.44500916 49.11337433 60.45504761 49.11329651 C59.41542877 49.10813522 58.37580994 49.10297394 57.3046875 49.09765625 C56.24210724 49.0962413 55.17952698 49.09482635 54.08474731 49.09336853 C50.68146991 49.08775834 47.27825762 49.07520409 43.875 49.0625 C41.57161553 49.05748631 39.26823003 49.05292318 36.96484375 49.04882812 C31.30987064 49.03778559 25.65494637 49.02051409 20 49 C20 52.63 20 56.26 20 60 C21.36125 60.20625 22.7225 60.4125 24.125 60.625 C37.93790995 63.42279904 52.14369585 70.78351327 61 82 C64.4734009 87.45694203 67.03738249 92.3866866 66 99 C64.59539303 101.87305972 63.25489001 103.74510999 61 106 C58.94140625 106.30078125 58.94140625 106.30078125 56.5625 106.3125 C55.38880859 106.33763672 55.38880859 106.33763672 54.19140625 106.36328125 C51.40483751 105.9013367 50.69519429 105.24110431 49 103 C48.05575901 101.17001083 47.16535416 99.31182419 46.3125 97.4375 C43.27253048 91.20743902 39.54000626 86.20564627 35 81 C34.31421875 80.19304687 33.6284375 79.38609375 32.921875 78.5546875 C30.06172884 75.24696122 27.24753 72.15280467 23.87158203 69.3684082 C22.45014893 68.19604614 22.45014893 68.19604614 21 67 C21.00523682 68.10389572 21.01047363 69.20779144 21.01586914 70.34513855 C21.06001425 80.74812887 21.06221628 91.15039513 21.02334595 101.55341625 C21.00470998 106.90186884 21.00085548 112.24948147 21.03076172 117.59790039 C21.05908021 122.75956392 21.04859697 127.91982401 21.01119995 133.08141518 C21.00375301 135.050578 21.01029168 137.01984495 21.03103638 138.98891258 C21.05771891 141.74833806 21.03468683 144.50320922 21 147.26245117 C21.01941147 148.07669052 21.03882294 148.89092987 21.05882263 149.72984314 C20.99862357 152.0735307 20.85826296 153.81544857 20 156 C13.93338929 161.73785937 8.14068271 162 0 162 C-0.33 135.6 -0.66 109.2 -1 82 C-3.97 86.29 -6.94 90.58 -10 95 C-11.83499828 97.17774891 -13.71698289 99.31906436 -15.6875 101.375 C-18.60768835 104.45559946 -21.49532961 107.52775949 -24.1875 110.8125 C-27.43250462 114.63664142 -31.16320924 117.78539153 -35 121 C-35.886875 121.763125 -36.77375 122.52625 -37.6875 123.3125 C-43.16237204 127.97196557 -48.74448607 132.40425128 -54.5625 136.625 C-55.15820801 137.06303955 -55.75391602 137.5010791 -56.36767578 137.95239258 C-60.64034401 141 -60.64034401 141 -64 141 C-66 138 -66 138 -66 135 C-64.671875 133.59765625 -64.671875 133.59765625 -62.75 132.0625 C-45.69372309 117.64410071 -33.04990596 100.30522648 -22 81 C-21.62504395 80.34789551 -21.25008789 79.69579102 -20.86376953 79.02392578 C-15.34533157 69.32856239 -11.27764179 59.38855864 -7 49 C-22.18 49 -37.36 49 -53 49 C-53.66 46.03 -54.32 43.06 -55 40 C-36.85 40 -18.7 40 0 40 C0 26.8 0 13.6 0 0 Z " fill="#FBFDFE" transform="translate(174,240)"/>
<path d="M0 0 C24.01893045 -0.44709488 54.99332191 0.23953394 74.546875 16.5625 C77.36037993 19.34575219 78.74486419 21.69242896 79.5 25.5625 C79 28 79 28 76.9375 30.375 C73.07332406 32.51262924 71.27262613 31.90495032 67 31 C63.984375 29.72265625 63.984375 29.72265625 60.75 28.0625 C43.97775651 19.83147454 25.8695803 14.14422718 8.1328125 8.375 C5.03650274 7.36271829 2.00430466 6.26497038 -1 5 C-0.67 3.35 -0.34 1.7 0 0 Z " fill="#F8FCFE" transform="translate(280,210)"/>
<path d="M0 0 C0 1.65 0 3.3 0 5 C-10.94238281 8.64746094 -10.94238281 8.64746094 -21.88476562 12.29492188 C-22.67404449 12.55804169 -23.46332336 12.8211615 -24.27651978 13.09225464 C-25.86790572 13.62266229 -27.45935694 14.15287414 -29.0508728 14.68289185 C-32.78822217 15.92777536 -36.52463738 17.175253 -40.25830078 18.43115234 C-46.39158342 20.49172628 -52.51359352 22.52254468 -58.75 24.25 C-66.50709808 26.34972909 -66.50709808 26.34972909 -72 32 C-73.83886719 31.76147461 -73.83886719 31.76147461 -76 31 C-77.37207031 29.17407227 -77.37207031 29.17407227 -78.578125 26.81640625 C-79.01640625 25.97142578 -79.4546875 25.12644531 -79.90625 24.25585938 C-80.3496875 23.36705078 -80.793125 22.47824219 -81.25 21.5625 C-81.93835938 20.23508789 -81.93835938 20.23508789 -82.640625 18.88085938 C-86 12.31708054 -86 12.31708054 -86 10 C-84.70602295 9.86424561 -83.4120459 9.72849121 -82.07885742 9.58862305 C-77.18216605 9.07356077 -72.28618903 8.55194957 -67.39038086 8.02856445 C-65.2893273 7.80483004 -63.18809489 7.58276744 -61.08666992 7.36254883 C-48.34500043 6.02596749 -35.70026176 4.44853536 -23.06382751 2.33406067 C-7.70750453 -0.15158481 -7.70750453 -0.15158481 0 0 Z " fill="#F9FCFE" transform="translate(229,209)"/>
<path d="M0 0 C48.72944961 -1.1455386 48.72944961 -1.1455386 66 14 C69.17857195 17.55697337 70.01722826 18.96630434 69.9375 23.75 C69 27 69 27 66 29 C60.83192271 29.62884297 58.07050033 28.20466119 53.6875 25.5625 C37.52599419 16.34671035 16.47772404 8.69174736 -2 6 C-1.34 4.02 -0.68 2.04 0 0 Z " fill="#F8FBFE" transform="translate(154,176)"/>
<path d="M0 0 C3.98556309 3.71655528 6.92020902 7.58197177 9.8125 12.1875 C10.21919922 12.81591797 10.62589844 13.44433594 11.04492188 14.09179688 C14 18.73549107 14 18.73549107 14 21 C12.33388095 21.042721 10.66617115 21.04063832 9 21 C8.67 20.67 8.34 20.34 8 20 C1.44075099 19.9256321 -4.89276322 21.63143175 -11.19067383 23.27172852 C-47.14399461 32.58436388 -47.14399461 32.58436388 -60 32 C-60.33 30.68 -60.66 29.36 -61 28 C-55.86120375 25.60510433 -50.69878212 23.28332293 -45.47265625 21.0859375 C-30.05761543 14.59730186 -14.94708565 7.5050401 0 0 Z " fill="#F8FBFE" transform="translate(339,169)"/>
<path d="M0 0 C0.33 0 0.66 0 1 0 C1 13.53 1 27.06 1 41 C-12.53 41 -26.06 41 -40 41 C-36.76284016 39.38142008 -33.61375469 38.05715856 -30.25 36.75 C-24.78388069 34.47853851 -20.44415797 31.88380762 -16 28 C-15.40703125 27.52304687 -14.8140625 27.04609375 -14.203125 26.5546875 C-6.56114327 19.82568589 -2.52693015 9.66396702 0 0 Z " fill="#000000" transform="translate(511,471)"/>
<path d="M0 0 C1.61857992 3.23715984 2.94284144 6.38624531 4.25 9.75 C6.52146149 15.21611931 9.11619238 19.55584203 13 24 C13.71542969 24.88945312 13.71542969 24.88945312 14.4453125 25.796875 C21.17431411 33.43885673 31.33603298 37.47306985 41 40 C41 40.33 41 40.66 41 41 C27.47 41 13.94 41 0 41 C0 27.47 0 13.94 0 0 Z " fill="#000000" transform="translate(0,471)"/>
<path d="M0 0 C13.53 0 27.06 0 41 0 C41 13.53 41 27.06 41 41 C39.38142008 37.76284016 38.05715856 34.61375469 36.75 31.25 C34.47853851 25.78388069 31.88380762 21.44415797 28 17 C27.52304687 16.40703125 27.04609375 15.8140625 26.5546875 15.203125 C19.82568589 7.56114327 9.66396702 3.52693015 0 1 C0 0.67 0 0.34 0 0 Z " fill="#000000" transform="translate(471,0)"/>
<path d="M0 0 C13.53 0 27.06 0 41 0 C37.76284016 1.61857992 34.61375469 2.94284144 31.25 4.25 C25.78388069 6.52146149 21.44415797 9.11619238 17 13 C16.40703125 13.47695312 15.8140625 13.95390625 15.203125 14.4453125 C7.56114327 21.17431411 3.52693015 31.33603298 1 41 C0.67 41 0.34 41 0 41 C0 27.47 0 13.94 0 0 Z " fill="#000000" transform="translate(0,0)"/>
</svg>
