<?xml version="1.0" encoding="UTF-8"?>
<svg version="1.1" xmlns="http://www.w3.org/2000/svg" width="512" height="512">
<path d="M0 0 C168.96 0 337.92 0 512 0 C512 168.96 512 337.92 512 512 C343.04 512 174.08 512 0 512 C0 343.04 0 174.08 0 0 Z " fill="#0081FB" transform="translate(0,0)"/>
<path d="M0 0 C101.97 0 203.94 0 309 0 C309 7.92 309 15.84 309 24 C262.47 24 215.94 24 168 24 C168 32.58 168 41.16 168 50 C219.81 50 271.62 50 325 50 C325 75.41 325 100.82 325 127 C314.77 127 304.54 127 294 127 C294 109.18 294 91.36 294 73 C252.42 73 210.84 73 168 73 C168 98.08 168 123.16 168 149 C157.77 149 147.54 149 137 149 C137 123.92 137 98.84 137 73 C96.74 73 56.48 73 15 73 C15 90.82 15 108.64 15 127 C4.77 127 -5.46 127 -16 127 C-16 101.92 -16 76.84 -16 51 C34.49 51 84.98 51 137 51 C137 42.09 137 33.18 137 24 C91.79 24 46.58 24 0 24 C0 16.08 0 8.16 0 0 Z " fill="#FCFDFE" transform="translate(102,80)"/>
<path d="M0 0 C9.57 0 19.14 0 29 0 C29 11.22 29 22.44 29 34 C56.06 34 83.12 34 111 34 C111 42.25 111 50.5 111 59 C88.56 59 66.12 59 43 59 C49.51893528 71.37321918 49.51893528 71.37321918 56.875 83.125 C57.38546875 83.87869873 57.8959375 84.63239746 58.421875 85.40893555 C66.04640925 96.5671664 74.32307496 106.83909302 83.66601562 116.60302734 C84.80358673 117.79431246 85.92678224 118.99929764 87.046875 120.20703125 C96.61148338 130.24169517 108.06138227 138.07877477 120 145 C118.93580611 147.70885718 118.00662588 148.99470381 115.703125 150.8359375 C112.4648681 153.42841484 110.21570641 156.31770518 107.75 159.625 C107.08097656 160.50285156 107.08097656 160.50285156 106.3984375 161.3984375 C103.99065026 164.56582594 103.99065026 164.56582594 102 168 C91.71526266 166.3990739 81.30817233 153.99223592 74 147 C72.6078125 145.68708984 72.6078125 145.68708984 71.1875 144.34765625 C64.0325671 137.42647826 57.94928967 129.96010144 52 122 C51.5786377 121.44473633 51.15727539 120.88947266 50.72314453 120.31738281 C42.83894785 109.89337267 35.84856138 98.69712275 30 87 C29.67 121.98 29.34 156.96 29 193 C19.43 193 9.86 193 0 193 C-0.33 156.7 -0.66 120.4 -1 83 C-4.3 88.61 -7.6 94.22 -11 100 C-12.94373045 102.95456475 -14.86537091 105.83490516 -16.9375 108.6875 C-17.68253784 109.72692749 -17.68253784 109.72692749 -18.44262695 110.78735352 C-25.47669604 120.52589129 -32.82092524 129.94487667 -40.96875 138.78125 C-42.78958125 140.77015799 -44.52087406 142.80682976 -46.25 144.875 C-53.80462966 153.53647075 -62.75249437 161.2137168 -72 168 C-75.70296419 166.48705075 -77.7200164 164.3194126 -80.3125 161.3125 C-84.0598238 157.03782103 -87.92269538 152.95931189 -92 149 C-90.51793002 145.24542273 -88.56051915 143.73313126 -85.25 141.5 C-67.51350558 128.94339443 -52.94493425 113.38095418 -40 96 C-39.57235352 95.42926758 -39.14470703 94.85853516 -38.70410156 94.27050781 C-30.37587732 83.09265651 -23.23818169 71.47636338 -17 59 C-35.15 59 -53.3 59 -72 59 C-72 50.75 -72 42.5 -72 34 C-48.24 34 -24.48 34 0 34 C0 22.78 0 11.56 0 0 Z " fill="#FCFDFE" transform="translate(322,239)"/>
<path d="M0 0 C8.91 0 17.82 0 27 0 C27 11.22 27 22.44 27 34 C48.12 34 69.24 34 91 34 C91 42.25 91 50.5 91 59 C69.88 59 48.76 59 27 59 C26.61700415 71.21726796 26.61700415 71.21726796 31.359375 75.76171875 C32.79498469 76.77764784 34.26068515 77.75207049 35.75 78.6875 C37.31412179 79.77167433 38.87792103 80.85631413 40.44140625 81.94140625 C41.21758301 82.45848145 41.99375977 82.97555664 42.79345703 83.50830078 C45.8637574 85.58392982 48.77400309 87.83719599 51.6875 90.125 C52.72003906 90.92035156 53.75257813 91.71570313 54.81640625 92.53515625 C74.16671403 107.49561546 74.16671403 107.49561546 83 115 C83.61488281 115.495 84.22976562 115.99 84.86328125 116.5 C86 118 86 118 85.74609375 119.85058594 C84.3405222 123.89988303 81.36403916 126.96026891 78.6875 130.25 C78.10548828 130.99507812 77.52347656 131.74015625 76.92382812 132.5078125 C76.35470703 133.21164062 75.78558594 133.91546875 75.19921875 134.640625 C74.68190186 135.28547852 74.16458496 135.93033203 73.6315918 136.59472656 C72 138 72 138 68 138 C65.83691406 136.27514648 65.83691406 136.27514648 63.515625 133.87109375 C62.23558594 132.56495117 62.23558594 132.56495117 60.9296875 131.23242188 C60.04539063 130.31009766 59.16109375 129.38777344 58.25 128.4375 C52.34716054 122.35512313 46.42524901 116.52742429 40 111 C36.04 107.37 32.08 103.74 28 100 C27.67 130.69 27.34 161.38 27 193 C18.09 193 9.18 193 0 193 C-0.33 160.99 -0.66 128.98 -1 96 C-4.96 102.27 -8.92 108.54 -13 115 C-15.15626896 118.17057416 -17.29588249 121.29181802 -19.5625 124.375 C-20.3666333 125.47739014 -20.3666333 125.47739014 -21.18701172 126.60205078 C-26.15472929 133.33965533 -31.44097197 139.74533293 -37 146 C-37.44553223 146.50724609 -37.89106445 147.01449219 -38.35009766 147.53710938 C-45.11828844 155.22347501 -52.34265109 162.21128578 -60 169 C-63.65818129 167.78060624 -64.3552432 166.49653437 -66.625 163.4375 C-70.59680852 158.30663211 -75.01520453 154.13091847 -80 150 C-74.00594561 143.8061438 -67.51432376 138.12649291 -60.9375 132.5625 C-41.27800354 115.2919065 -26.39285328 91.05128284 -14.18164062 68.16137695 C-12.49866136 65.08298534 -10.74065693 62.04614963 -9 59 C-29.79 59 -50.58 59 -72 59 C-72 50.75 -72 42.5 -72 34 C-48.24 34 -24.48 34 0 34 C0 22.78 0 11.56 0 0 Z " fill="#FCFDFE" transform="translate(150,239)"/>
<path d="M0 0 C1.46386719 1.25341797 1.46386719 1.25341797 2.796875 2.9921875 C3.28027344 3.61480469 3.76367188 4.23742187 4.26171875 4.87890625 C4.75285156 5.53761719 5.24398437 6.19632813 5.75 6.875 C6.25660156 7.52597656 6.76320313 8.17695313 7.28515625 8.84765625 C11 13.70398838 11 13.70398838 11 16 C-45.22190202 37 -45.22190202 37 -63 37 C-63 37.66 -63 38.32 -63 39 C-62.30011963 39.02940674 -61.60023926 39.05881348 -60.87915039 39.08911133 C-51.14960727 39.65646968 -41.7321141 41.32560662 -32.17358398 43.16381836 C-29.46889975 43.68149014 -26.76119495 44.18025198 -24.05273438 44.67773438 C-8.91510459 47.52161557 5.57769735 51.59163651 20 57 C18.02 62.94 16.04 68.88 14 75 C8.35785287 74.29473161 4.24207075 73.60389103 -1 71.9375 C-21.50206984 65.67969728 -42.38181612 60.76254358 -63.54785156 57.40576172 C-69.39614868 56.43803275 -75.19785586 55.20992579 -81 54 C-80.32740579 50.05216445 -79.20196349 46.4809948 -77.75 42.75 C-77.35296875 41.69296875 -76.9559375 40.6359375 -76.546875 39.546875 C-75 37 -75 37 -72.328125 36.140625 C-71.55984375 36.09421875 -70.7915625 36.0478125 -70 36 C-70.5053125 35.30132812 -71.010625 34.60265625 -71.53125 33.8828125 C-72.1809375 32.97273438 -72.830625 32.06265625 -73.5 31.125 C-74.1496875 30.22007812 -74.799375 29.31515625 -75.46875 28.3828125 C-77 26 -77 26 -77 24 C-72.26557546 22.36447152 -67.52373694 20.85230252 -62.70414734 19.48612976 C-49.44595938 15.703096 -36.46678839 11.08780582 -23.44848633 6.5612793 C-20.32550861 5.47703372 -17.20004433 4.40022121 -14.07421875 3.32421875 C-12.64307991 2.82277596 -12.64307991 2.82277596 -11.18302917 2.311203 C-9.85432549 1.85491264 -9.85432549 1.85491264 -8.4987793 1.3894043 C-7.72398727 1.12024704 -6.94919525 0.85108978 -6.15092468 0.57377625 C-4 0 -4 0 0 0 Z " fill="#FAFDFE" transform="translate(369,156)"/>
<path d="M0 0 C0 5.61 0 11.22 0 17 C-9.44323827 19.62468966 -18.78046753 21.85847553 -28.43759155 23.58068848 C-31.91390433 24.2009111 -35.38658406 24.84086615 -38.859375 25.48046875 C-39.55133469 25.60757233 -40.24329437 25.7346759 -40.95622253 25.8656311 C-47.38911951 27.05526244 -53.78959401 28.38518185 -60.1875 29.75 C-80.97006014 34.15915196 -80.97006014 34.15915196 -89 34 C-90.17495143 31.06574629 -91.33850852 28.12710487 -92.5 25.1875 C-92.83386719 24.35412109 -93.16773437 23.52074219 -93.51171875 22.66210938 C-93.98544922 21.45844727 -93.98544922 21.45844727 -94.46875 20.23046875 C-94.76201172 19.49207764 -95.05527344 18.75368652 -95.35742188 17.99291992 C-96 16 -96 16 -96 13 C-80.25777742 10.44296794 -64.47752025 8.17753501 -48.6875 5.9375 C-44.97213579 5.40887652 -41.25682766 4.87986059 -37.54153442 4.35073853 C-35.173228 4.01392086 -32.8048019 3.67794346 -30.43624878 3.34286499 C-25.75535418 2.68038893 -21.07507083 2.01748585 -16.40087891 1.30908203 C-15.18190918 1.12587402 -13.96293945 0.94266602 -12.70703125 0.75390625 C-11.73870361 0.60381104 -10.77037598 0.45371582 -9.77270508 0.29907227 C-6.53240666 -0.05043602 -3.25909341 0 0 0 Z " fill="#FCFDFE" transform="translate(221,196)"/>
<path d="M0 0 C25.22279979 2.79171272 49.69313858 11.36882095 73 21 C72.21789535 25.5012976 70.66394344 28.80490181 68.4375 32.8125 C68.10814453 33.40998047 67.77878906 34.00746094 67.43945312 34.62304688 C66.63226733 36.08533998 65.81695083 37.5431399 65 39 C58.88687078 37.00309886 52.83809525 34.87131762 46.8125 32.625 C44.45241714 31.74682964 42.09140419 30.87160747 39.72753906 30.00366211 C37.76297039 29.28075289 35.80176831 28.54867101 33.84277344 27.81079102 C24.88852901 24.50357968 15.87736057 21.99514501 6.625 19.6875 C5.195155 19.32549131 3.76546654 18.96286373 2.3359375 18.59960938 C-1.10761008 17.72597115 -4.5531642 16.86058631 -8 16 C-7.28724998 11.98069507 -6.16701499 9.22972599 -4 5.75 C-3.46375 4.87859375 -2.9275 4.0071875 -2.375 3.109375 C-1 1 -1 1 0 0 Z " fill="#F9FCFE" transform="translate(145,156)"/>
<path d="M0 0 C0.33 0 0.66 0 1 0 C1 13.53 1 27.06 1 41 C-12.53 41 -26.06 41 -40 41 C-36.76284016 39.38142008 -33.61375469 38.05715856 -30.25 36.75 C-24.78388069 34.47853851 -20.44415797 31.88380762 -16 28 C-15.40703125 27.52304687 -14.8140625 27.04609375 -14.203125 26.5546875 C-6.56114327 19.82568589 -2.52693015 9.66396702 0 0 Z " fill="#000000" transform="translate(511,471)"/>
<path d="M0 0 C1.61857992 3.23715984 2.94284144 6.38624531 4.25 9.75 C6.52146149 15.21611931 9.11619238 19.55584203 13 24 C13.71542969 24.88945312 13.71542969 24.88945312 14.4453125 25.796875 C21.17431411 33.43885673 31.33603298 37.47306985 41 40 C41 40.33 41 40.66 41 41 C27.47 41 13.94 41 0 41 C0 27.47 0 13.94 0 0 Z " fill="#000000" transform="translate(0,471)"/>
<path d="M0 0 C13.53 0 27.06 0 41 0 C41 13.53 41 27.06 41 41 C39.38142008 37.76284016 38.05715856 34.61375469 36.75 31.25 C34.47853851 25.78388069 31.88380762 21.44415797 28 17 C27.52304687 16.40703125 27.04609375 15.8140625 26.5546875 15.203125 C19.82568589 7.56114327 9.66396702 3.52693015 0 1 C0 0.67 0 0.34 0 0 Z " fill="#000000" transform="translate(471,0)"/>
<path d="M0 0 C13.53 0 27.06 0 41 0 C37.76284016 1.61857992 34.61375469 2.94284144 31.25 4.25 C25.78388069 6.52146149 21.44415797 9.11619238 17 13 C16.40703125 13.47695312 15.8140625 13.95390625 15.203125 14.4453125 C7.56114327 21.17431411 3.52693015 31.33603298 1 41 C0.67 41 0.34 41 0 41 C0 27.47 0 13.94 0 0 Z " fill="#000000" transform="translate(0,0)"/>
<path d="M0 0 C0.33 0 0.66 0 1 0 C1 32.67 1 65.34 1 99 C0.67 99 0.34 99 0 99 C-0.33 68.31 -0.66 37.62 -1 6 C-1.99 6.495 -1.99 6.495 -3 7 C-1.125 2.25 -1.125 2.25 0 0 Z " fill="#1A8DFB" transform="translate(149,333)"/>
</svg>
